:FULLY-SPECIFIED
:FORCE-ALL-JOINTS-BE-3DOF
:DEGREES
204
root -0.236155 15.8596 -35.7891 6.9087 55.4841 6.87998
lfemur -9.2635 0.315346 -15.1149
ltibia 45.9119 -0 0
lfoot -24.1152 19.7138 -0.410897
ltoes -14.53 0 0
rfemur -40.8655 -3.24638 12.0407
rtibia 51.2446 -0 0
rfoot -8.14011 5.15473 0.607361
rtoes -14.1491 0 0
lowerback 14.0277 0.560016 -7.35653
upperback -1.47666 -0.308461 1.70788
thorax -9.22952 0.289903 6.30424
lowerneck -4.77116 -2.81854 -4.72098
upperneck 5.4995 -3.63326 3.27409
head 2.79339 -1.79747 1.76514
lclavicle -3.77629e-15 -2.87523e-15 1.82313e-31
lhumerus -7.12561 -32.7609 92.5257
lradius 42.9214 -0 0
lwrist -21.444 0 0
lhand -26.749 37.2444 0.0763384
lfingers 7.12502 -0 0
lthumb -0.177732 67.2186 0.0737872
rclavicle -3.77629e-15 -2.87523e-15 1.82313e-31
rhumerus -10.3874 20.3347 -74.0016
rradius 87.2381 -0 0
rwrist -26.3708 0 0
rhand 47.6786 -16.2152 3.35205
rfingers 7.12502 -0 0
rthumb 39.3286 -78.2071 -4.3709
205
root -0.222754 15.8548 -35.7867 6.97515 55.7574 6.97114
lfemur -9.22102 0.338798 -15.1513
ltibia 45.9527 -0 0
lfoot -24.1463 19.7775 -0.409388
ltoes -14.4728 0 0
rfemur -40.9722 -3.26543 12.0308
rtibia 51.2982 -0 0
rfoot -8.066 5.19439 0.605127
rtoes -14.1152 0 0
lowerback 14.0626 0.551825 -7.38361
upperback -1.46852 -0.326345 1.70976
thorax -9.23863 0.283016 6.32557
lowerneck -4.77149 -2.81251 -4.71055
upperneck 5.5032 -3.6249 3.2584
head 2.79346 -1.79359 1.75833
lclavicle -3.80433e-15 -2.84386e-15 1.81645e-31
lhumerus -7.01799 -32.897 92.5135
lradius 43.006 -0 0
lwrist -21.3988 0 0
lhand -26.7387 37.2801 0.0760585
lfingers 7.12502 -0 0
lthumb -0.167771 67.2544 0.0735167
rclavicle -3.80433e-15 -2.84386e-15 1.81645e-31
rhumerus -10.2667 20.4031 -73.9463
rradius 87.5054 -0 0
rwrist -26.5196 0 0
rhand 48.0331 -16.167 3.33878
rfingers 7.12502 -0 0
rthumb 39.5128 -78.3242 -4.35442
206
root -0.209354 15.85 -35.7843 7.04284 56.0306 7.0635
lfemur -9.17855 0.362276 -15.1878
ltibia 45.9935 -0 0
lfoot -24.1775 19.8413 -0.407843
ltoes -14.4155 0 0
rfemur -41.0789 -3.2845 12.0209
rtibia 51.3518 -0 0
rfoot -7.9919 5.23405 0.602842
rtoes -14.0814 0 0
lowerback 14.0975 0.543651 -7.4107
upperback -1.46039 -0.344229 1.71164
thorax -9.24774 0.276133 6.3469
lowerneck -4.77181 -2.80649 -4.70012
upperneck 5.50691 -3.61654 3.2427
head 2.79353 -1.78971 1.75152
lclavicle -3.83237e-15 -2.81249e-15 1.80962e-31
lhumerus -6.91018 -33.0331 92.501
lradius 43.0907 -0 0
lwrist -21.3536 0 0
lhand -26.7284 37.3159 0.0757722
lfingers 7.12502 -0 0
lthumb -0.157811 67.2901 0.07324
rclavicle -3.83237e-15 -2.81249e-15 1.80962e-31
rhumerus -10.1458 20.4714 -73.8908
rradius 87.7727 -0 0
rwrist -26.6684 0 0
rhand 48.3876 -16.1189 3.32521
rfingers 7.12502 -0 0
rthumb 39.697 -78.4411 -4.33757
207
root -0.195953 15.8453 -35.7819 7.11181 56.3037 7.15711
lfemur -9.1361 0.385781 -15.2242
ltibia 46.0343 -0 0
lfoot -24.2087 19.905 -0.406264
ltoes -14.3582 0 0
rfemur -41.1856 -3.30359 12.011
rtibia 51.4054 -0 0
rfoot -7.9178 5.2737 0.600505
rtoes -14.0475 0 0
lowerback 14.1325 0.535493 -7.4378
upperback -1.45226 -0.362113 1.71352
thorax -9.25685 0.269253 6.36823
lowerneck -4.77214 -2.80046 -4.68969
upperneck 5.51061 -3.60819 3.227
head 2.7936 -1.78584 1.74472
lclavicle -3.86041e-15 -2.78112e-15 1.80263e-31
lhumerus -6.80216 -33.1692 92.4882
lradius 43.1753 -0 0
lwrist -21.3083 0 0
lhand -26.7181 37.3516 0.0754795
lfingers 7.12502 -0 0
lthumb -0.147851 67.3259 0.072957
rclavicle -3.86041e-15 -2.78112e-15 1.80263e-31
rhumerus -10.0249 20.5397 -73.8351
rradius 88.04 -0 0
rwrist -26.8173 0 0
rhand 48.7421 -16.0709 3.31134
rfingers 7.12502 -0 0
rthumb 39.8811 -78.5581 -4.32034
208
root -0.182553 15.8405 -35.7795 7.18209 56.5768 7.25199
lfemur -9.09367 0.409313 -15.2606
ltibia 46.075 -0 0
lfoot -24.2398 19.9687 -0.404651
ltoes -14.3009 0 0
rfemur -41.2923 -3.3227 12.0012
rtibia 51.459 -0 0
rfoot -7.8437 5.31335 0.598117
rtoes -14.0136 0 0
lowerback 14.1674 0.527352 -7.4649
upperback -1.44412 -0.379997 1.7154
thorax -9.26596 0.262377 6.38956
lowerneck -4.77246 -2.79443 -4.67925
upperneck 5.51431 -3.59983 3.21131
head 2.79367 -1.78196 1.73791
lclavicle -3.88845e-15 -2.74975e-15 1.79549e-31
lhumerus -6.69394 -33.3053 92.475
lradius 43.26 -0 0
lwrist -21.2631 0 0
lhand -26.7078 37.3874 0.0751803
lfingers 7.12502 -0 0
lthumb -0.137892 67.3617 0.0726679
rclavicle -3.88845e-15 -2.74975e-15 1.79549e-31
rhumerus -9.90379 20.6078 -73.7793
rradius 88.3073 -0 0
rwrist -26.9661 0 0
rhand 49.0966 -16.023 3.29718
rfingers 7.12502 -0 0
rthumb 40.0652 -78.675 -4.30274
209
root -0.169152 15.8357 -35.7771 7.25371 56.8498 7.34817
lfemur -9.05125 0.432873 -15.297
ltibia 46.1158 -0 0
lfoot -24.271 20.0325 -0.403002
ltoes -14.2436 0 0
rfemur -41.3991 -3.34182 11.9915
rtibia 51.5126 -0 0
rfoot -7.76961 5.353 0.595677
rtoes -13.9797 0 0
lowerback 14.2023 0.519228 -7.492
upperback -1.43599 -0.397882 1.71727
thorax -9.27507 0.255504 6.41089
lowerneck -4.77279 -2.7884 -4.66882
upperneck 5.51801 -3.59147 3.19561
head 2.79373 -1.77808 1.7311
lclavicle -3.91649e-15 -2.71838e-15 1.7882e-31
lhumerus -6.58551 -33.4413 92.4615
lradius 43.3446 -0 0
lwrist -21.2179 0 0
lhand -26.6975 37.4231 0.0748748
lfingers 7.12502 -0 0
lthumb -0.127932 67.3974 0.0723725
rclavicle -3.91649e-15 -2.71838e-15 1.7882e-31
rhumerus -9.78258 20.6758 -73.7233
rradius 88.5746 -0 0
rwrist -27.1149 0 0
rhand 49.4511 -15.9752 3.28272
rfingers 7.12502 -0 0
rthumb 40.2492 -78.7918 -4.28476
210
root -0.155752 15.8309 -35.7748 7.32669 57.1228 7.44569
lfemur -9.00884 0.456459 -15.3333
ltibia 46.1566 -0 0
lfoot -24.3022 20.0962 -0.401319
ltoes -14.1864 0 0
rfemur -41.5058 -3.36096 11.9817
rtibia 51.5662 -0 0
rfoot -7.69551 5.39265 0.593187
rtoes -13.9458 0 0
lowerback 14.2373 0.51112 -7.51912
upperback -1.42786 -0.415767 1.71914
thorax -9.28419 0.248634 6.43223
lowerneck -4.77311 -2.78237 -4.65839
upperneck 5.5217 -3.58311 3.17992
head 2.7938 -1.7742 1.72429
lclavicle -3.94453e-15 -2.68701e-15 1.78075e-31
lhumerus -6.47688 -33.5774 92.4477
lradius 43.4293 -0 0
lwrist -21.1727 0 0
lhand -26.6872 37.4588 0.0745627
lfingers 7.12502 -0 0
lthumb -0.117973 67.4332 0.0720709
rclavicle -3.94453e-15 -2.68701e-15 1.78075e-31
rhumerus -9.66125 20.7436 -73.667
rradius 88.8418 -0 0
rwrist -27.2638 0 0
rhand 49.8055 -15.9275 3.26796
rfingers 7.12502 -0 0
rthumb 40.4333 -78.9085 -4.26641
211
root -0.142352 15.8262 -35.7724 7.40109 57.3956 7.54458
lfemur -8.96645 0.480072 -15.3697
ltibia 46.1974 -0 0
lfoot -24.3333 20.1599 -0.399602
ltoes -14.1291 0 0
rfemur -41.6124 -3.38013 11.972
rtibia 51.6198 -0 0
rfoot -7.62142 5.43229 0.590645
rtoes -13.9119 0 0
lowerback 14.2722 0.503029 -7.54623
upperback -1.41973 -0.433652 1.72101
thorax -9.29331 0.241768 6.45356
lowerneck -4.77343 -2.77634 -4.64795
upperneck 5.52539 -3.57475 3.16422
head 2.79387 -1.77032 1.71748
lclavicle -3.97257e-15 -2.65564e-15 1.77316e-31
lhumerus -6.36803 -33.7134 92.4335
lradius 43.514 -0 0
lwrist -21.1274 0 0
lhand -26.6769 37.4946 0.0742443
lfingers 7.12502 -0 0
lthumb -0.108014 67.4689 0.0717631
rclavicle -3.97257e-15 -2.65564e-15 1.77316e-31
rhumerus -9.53979 20.8114 -73.6106
rradius 89.1091 -0 0
rwrist -27.4126 0 0
rhand 50.1599 -15.8798 3.25291
rfingers 7.12502 -0 0
rthumb 40.6172 -79.0252 -4.24768
